<?xml version="1.0" encoding="iso-8859-1"?>
<!-- Generator: Adobe Illustrator 19.0.0, SVG Export Plug-In . SVG Version: 6.00 Build 0)  -->
<svg version="1.1" id="Capa_1" xmlns="http://www.w3.org/2000/svg" xmlns:xlink="http://www.w3.org/1999/xlink" x="0px" y="0px"
	 viewBox="0 0 512.001 512.001" style="enable-background:new 0 0 512.001 512.001;" xml:space="preserve">
<g>
	<rect x="284.639" y="340.443" style="fill:#FEB756;" width="147.522" height="39.291"/>
	<rect x="46.932" y="340.443" style="fill:#FEB756;" width="145.07" height="39.291"/>
</g>
<path style="fill:#57555C;" d="M76.496,340.444c0.2,1.394,0.303,7.97,0.303,9.42c0,16.495-13.372,29.867-29.867,29.867
	s-29.867-13.372-29.867-29.867c0-1.448,0.103-8.024,0.303-9.418L76.496,340.444z"/>
<path style="fill:#4B494F;" d="M76.497,340.444l-20.604,0.001c0.2,1.396,0.303,7.97,0.303,9.419
	c0,12.874-8.147,23.846-19.565,28.043c3.211,1.181,6.681,1.825,10.302,1.825c16.495,0,29.867-13.372,29.867-29.867
	C76.799,348.415,76.696,341.839,76.497,340.444z"/>
<path style="fill:#57555C;" d="M221.562,340.444c0.2,1.394,0.303,7.97,0.303,9.42c0,16.495-13.372,29.867-29.867,29.867
	s-29.867-13.372-29.867-29.867c0-1.448,0.103-8.024,0.303-9.418L221.562,340.444z"/>
<path style="fill:#4B494F;" d="M221.562,340.444l-20.604,0.001c0.2,1.396,0.303,7.97,0.303,9.419
	c0,12.874-8.147,23.846-19.565,28.043c3.211,1.181,6.681,1.825,10.302,1.825c16.495,0,29.867-13.372,29.867-29.867
	C221.865,348.415,221.761,341.839,221.562,340.444z"/>
<path style="fill:#57555C;" d="M315.431,340.444c0.2,1.394,0.303,7.97,0.303,9.42c0,16.495-13.372,29.867-29.867,29.867
	S256,366.36,256,349.864c0-1.448,0.103-8.024,0.303-9.418L315.431,340.444z"/>
<path style="fill:#4B494F;" d="M315.431,340.444l-20.604,0.001c0.2,1.396,0.303,7.97,0.303,9.419
	c0,12.874-8.147,23.846-19.565,28.043c3.211,1.181,6.681,1.825,10.302,1.825c16.495,0,29.867-13.372,29.867-29.867
	C315.733,348.415,315.63,341.839,315.431,340.444z"/>
<path style="fill:#57555C;" d="M460.496,340.444c0.2,1.394,0.303,7.97,0.303,9.42c0,16.495-13.372,29.867-29.867,29.867
	c-16.495,0-29.867-13.372-29.867-29.867c0-1.448,0.103-8.024,0.303-9.418L460.496,340.444z"/>
<path style="fill:#4B494F;" d="M460.496,340.444l-20.604,0.001c0.2,1.396,0.303,7.97,0.303,9.419
	c0,12.874-8.147,23.846-19.565,28.043c3.211,1.181,6.681,1.825,10.302,1.825c16.495,0,29.867-13.372,29.867-29.867
	C460.799,348.415,460.696,341.839,460.496,340.444z"/>
<g>
	<rect x="102.4" y="340.443" style="fill:#57555C;" width="34.13" height="39.291"/>
	<rect x="341.33" y="340.443" style="fill:#57555C;" width="34.13" height="39.291"/>
</g>
<path style="fill:#FEB756;" d="M238.932,167.061v-28.613c0-3.414-2.767-6.181-6.181-6.181h-124.17c-3.414,0-6.181,2.767-6.181,6.181
	v28.612L238.932,167.061z"/>
<path style="fill:#FA8043;" d="M232.751,132.266h-20.5c3.414,0,6.181,2.767,6.181,6.181v28.613h20.5v-28.613
	C238.932,135.034,236.165,132.266,232.751,132.266z"/>
<path style="fill:#E4F1FB;" d="M498.831,271.185L398.579,170.929c-7.866-8.055-18.841-13.063-30.99-13.063l-353.147-0.002
	C6.465,157.865,0,164.331,0,172.307v158.851c0,7.976,6.465,14.442,14.442,14.442h454.235c23.927,0,43.323-19.396,43.323-43.323
	C512,290.075,506.948,279.059,498.831,271.185z"/>
<path style="fill:#4DBBEB;" d="M48.846,251.732h55.906c3.414,0,6.181-2.767,6.181-6.181v-45.016H42.665v45.016
	C42.665,248.965,45.432,251.732,48.846,251.732z"/>
<path style="fill:#38A1D9;" d="M90.329,200.536v45.016c0,3.414-2.767,6.181-6.181,6.181h20.604c3.414,0,6.181-2.767,6.181-6.181
	v-45.016L90.329,200.536L90.329,200.536z"/>
<path style="fill:#85828C;" d="M119.466,192.807H34.132c-4.268,0-7.726,3.459-7.726,7.726c0,4.267,3.458,7.726,7.726,7.726h85.334
	c4.268,0,7.726-3.459,7.726-7.726C127.192,196.266,123.733,192.807,119.466,192.807z"/>
<path style="fill:#4DBBEB;" d="M159.779,251.732h55.906c3.414,0,6.181-2.767,6.181-6.181v-45.016h-68.268v45.016
	C153.598,248.965,156.365,251.732,159.779,251.732z"/>
<path style="fill:#38A1D9;" d="M201.262,200.536v45.016c0,3.414-2.767,6.181-6.181,6.181h20.604c3.414,0,6.181-2.767,6.181-6.181
	v-45.016L201.262,200.536L201.262,200.536z"/>
<path style="fill:#85828C;" d="M230.399,192.807h-85.334c-4.268,0-7.726,3.459-7.726,7.726c0,4.267,3.458,7.726,7.726,7.726h85.334
	c4.268,0,7.726-3.459,7.726-7.726C238.125,196.266,234.667,192.807,230.399,192.807z"/>
<path style="fill:#4DBBEB;" d="M270.712,251.732h55.906c3.414,0,6.181-2.767,6.181-6.181v-45.016h-68.268v45.016
	C264.531,248.965,267.299,251.732,270.712,251.732z"/>
<path style="fill:#38A1D9;" d="M312.195,200.536v45.016c0,3.414-2.767,6.181-6.181,6.181h20.604c3.414,0,6.181-2.767,6.181-6.181
	v-45.016L312.195,200.536L312.195,200.536z"/>
<path style="fill:#85828C;" d="M341.332,192.807h-85.334c-4.268,0-7.726,3.459-7.726,7.726c0,4.267,3.458,7.726,7.726,7.726h85.334
	c4.268,0,7.726-3.459,7.726-7.726C349.058,196.266,345.6,192.807,341.332,192.807z"/>
<path style="fill:#C9E3F7;" d="M498.831,271.185L398.579,170.929c-7.866-8.055-18.841-13.063-30.99-13.063h-20.604
	c12.149,0,23.123,5.007,30.99,13.063l100.252,100.256c8.117,7.874,13.169,18.889,13.169,31.092
	c0,23.926-19.396,43.323-43.322,43.323h20.604c23.927,0,43.323-19.396,43.323-43.323
	C511.999,290.075,506.948,279.059,498.831,271.185z"/>
<path style="fill:#4DBBEB;" d="M419.647,191.998h-27.114c-9.426,0-17.067,7.641-17.067,17.067c0,5.987,3.088,11.244,7.753,14.291
	l35.633,31.579c4.325,3.339,9.742,5.33,15.628,5.33l53.431-0.001L419.647,191.998z"/>
<polygon style="fill:#38A1D9;" points="399.044,191.998 467.308,260.265 487.911,260.265 462.264,234.617 419.647,191.998 "/>
<path style="fill:#FD3A4E;" d="M0,319.999h508.207c2.43-5.412,3.793-11.406,3.793-17.723c0-5.811-1.157-11.348-3.235-16.411H0
	V319.999z"/>
<path style="fill:#DE0B2B;" d="M511.863,299.003c-0.028-0.366-0.048-0.733-0.086-1.097c-0.048-0.479-0.113-0.952-0.177-1.427
	c-0.031-0.229-0.055-0.459-0.09-0.687c-0.084-0.556-0.184-1.108-0.289-1.658c-0.026-0.135-0.047-0.272-0.074-0.407
	c-0.123-0.609-0.261-1.211-0.409-1.811c-0.018-0.069-0.032-0.139-0.049-0.209c-0.162-0.64-0.338-1.274-0.527-1.904
	c-0.007-0.025-0.014-0.051-0.022-0.075c-0.198-0.653-0.411-1.299-0.639-1.939c-0.001-0.002-0.002-0.005-0.003-0.007
	c-0.231-0.647-0.475-1.286-0.735-1.918H488.16c2.077,5.062,3.235,10.6,3.235,16.411c0,6.317-1.363,12.312-3.793,17.723h20.604
	c0.001-0.002,0.001-0.003,0.002-0.005c0.301-0.67,0.584-1.348,0.851-2.035c0.004-0.009,0.008-0.02,0.011-0.029
	c0.261-0.67,0.503-1.349,0.731-2.035c0.01-0.032,0.022-0.064,0.032-0.096c0.215-0.654,0.414-1.317,0.599-1.985
	c0.019-0.067,0.038-0.133,0.057-0.199c0.171-0.629,0.324-1.265,0.467-1.906c0.024-0.105,0.05-0.21,0.073-0.316
	c0.129-0.599,0.24-1.204,0.344-1.811c0.025-0.147,0.056-0.294,0.079-0.441c0.092-0.574,0.165-1.154,0.235-1.735
	c0.021-0.18,0.049-0.357,0.068-0.538c0.061-0.572,0.102-1.15,0.14-1.728c0.012-0.189,0.033-0.375,0.043-0.564
	c0.04-0.762,0.062-1.53,0.062-2.302c0-0.742-0.021-1.478-0.057-2.211C511.924,299.709,511.89,299.358,511.863,299.003z"/>
<g>
</g>
<g>
</g>
<g>
</g>
<g>
</g>
<g>
</g>
<g>
</g>
<g>
</g>
<g>
</g>
<g>
</g>
<g>
</g>
<g>
</g>
<g>
</g>
<g>
</g>
<g>
</g>
<g>
</g>
</svg>
